<svg xmlns="http://www.w3.org/2000/svg" width="9" height="11" fill="none" viewBox="0 0 9 11"><path fill="#fff" d="M6.39873 0.401702H8.10248V6.65858C8.10248 7.49087 7.89685 8.20566 7.4856 8.80295C7.07435 9.41004 6.47706 9.87514 5.69373 10.1983C4.92019 10.5214 3.98998 10.683 2.9031 10.683L2.60935 9.0967C3.79414 9.07712 4.69008 8.8666 5.29717 8.46514C5.91404 8.06368 6.22248 7.48597 6.22248 6.73201V6.70264L6.47217 6.61451C6.23717 6.95722 5.91404 7.25097 5.50279 7.49576C5.09154 7.73076 4.60196 7.84826 4.03404 7.84826C3.38779 7.84826 2.81987 7.6916 2.33029 7.37826C1.84071 7.06493 1.45394 6.6292 1.16998 6.07108C0.895811 5.50316 0.758728 4.83733 0.758728 4.07358C0.758728 3.30983 0.895811 2.64399 1.16998 2.07608C1.45394 1.50816 1.84071 1.07243 2.33029 0.768889C2.81987 0.455556 3.38779 0.298889 4.03404 0.298889C4.36696 0.298889 4.6754 0.347848 4.95935 0.445764C5.2531 0.533889 5.50769 0.656285 5.7231 0.812952C5.94831 0.959827 6.13435 1.12629 6.28123 1.31233L6.39873 0.401702ZM2.7856 4.07358C2.7856 4.69045 2.94227 5.18983 3.2556 5.5717C3.56894 5.94379 3.98998 6.12983 4.51873 6.12983C4.82227 6.12983 5.10133 6.05149 5.35592 5.89483C5.6105 5.72837 5.81612 5.48847 5.97279 5.17514C6.13925 4.86181 6.22248 4.49462 6.22248 4.07358C6.22248 3.63295 6.13925 3.26087 5.97279 2.95733C5.81612 2.65379 5.6056 2.42368 5.34123 2.26701C5.08664 2.10056 4.81248 2.01733 4.51873 2.01733C3.98998 2.01733 3.56894 2.20826 3.2556 2.59014C2.94227 2.96222 2.7856 3.4567 2.7856 4.07358Z"/></svg>